<svg xmlns="http://www.w3.org/2000/svg" id="prefix__avatar" width="17.948" height="21.1" viewBox="0 0 17.948 21.1">
    <defs>
        <style>
            .prefix__cls-1{fill:#fff}
        </style>
    </defs>
    <g id="prefix__Group_6" data-name="Group 6">
        <path id="prefix__Path_168" d="M141.565 11.369h.14a4.032 4.032 0 003.08-1.333c1.682-1.9 1.4-5.147 1.372-5.457a4.458 4.458 0 00-2.118-3.963A4.858 4.858 0 00141.688 0h-.074a4.866 4.866 0 00-2.351.6 4.46 4.46 0 00-2.145 3.981c-.031.31-.31 3.561 1.372 5.457a4.016 4.016 0 003.075 1.331zm-3.281-6.681v-.035c.144-3.133 2.368-3.469 3.321-3.469h.052c1.18.026 3.185.507 3.321 3.469a.085.085 0 000 .035c0 .031.31 3-1.079 4.566a2.864 2.864 0 01-2.25.935h-.044a2.854 2.854 0 01-2.246-.935c-1.376-1.554-1.079-4.539-1.075-4.566z" class="prefix__cls-1" data-name="Path 168" transform="translate(-132.668)"/>
        <path id="prefix__Path_169" d="M54.019 264.678v-.013-.109c-.026-.865-.083-2.888-1.979-3.535l-.044-.013a12.609 12.609 0 01-3.627-1.652.59.59 0 00-.677.966 13.609 13.609 0 003.989 1.822c1.018.363 1.132 1.451 1.162 2.447a.877.877 0 000 .109 7.931 7.931 0 01-.092 1.35 16.08 16.08 0 01-7.7 1.791 16.173 16.173 0 01-7.708-1.8 7.509 7.509 0 01-.092-1.35v-.109c.031-1 .144-2.084 1.162-2.447a13.736 13.736 0 003.989-1.822.59.59 0 10-.677-.966A12.47 12.47 0 0138.1 261l-.044.013c-1.9.651-1.953 2.674-1.979 3.535a.876.876 0 010 .109v.013a6.7 6.7 0 00.223 1.979.561.561 0 00.227.275 16.527 16.527 0 008.529 2.089 16.577 16.577 0 008.529-2.089.585.585 0 00.227-.275 7.03 7.03 0 00.207-1.971z" class="prefix__cls-1" data-name="Path 169" transform="translate(-36.073 -247.917)"/>
    </g>
</svg>
