<svg xmlns="http://www.w3.org/2000/svg" width="29.767" height="29.767" viewBox="0 0 29.767 29.767">
    <defs>
        <style>
            .prefix__cls-1{fill:#fff}
        </style>
    </defs>
    <g id="prefix__cal" transform="translate(-1.5 -1.5)">
        <path id="prefix__Path_195" d="M5.645 8.369A1.145 1.145 0 014.5 7.224V2.645a1.145 1.145 0 112.29 0v4.58a1.145 1.145 0 01-1.145 1.144zm13.739 0a1.145 1.145 0 01-1.145-1.145V2.645a1.145 1.145 0 012.29 0v4.58a1.145 1.145 0 01-1.145 1.144z" class="prefix__cls-1" data-name="Path 195" transform="translate(3.869)"/>
        <path id="prefix__Path_196" d="M27.832 29.977H4.935A3.439 3.439 0 011.5 26.543V5.935A3.439 3.439 0 014.935 2.5h22.9a3.439 3.439 0 013.435 3.435v20.608a3.439 3.439 0 01-3.438 3.434zM4.935 4.79A1.145 1.145 0 003.79 5.935v20.608a1.145 1.145 0 001.145 1.145h22.9a1.145 1.145 0 001.145-1.145V5.935a1.145 1.145 0 00-1.148-1.145z" class="prefix__cls-1" data-name="Path 196" transform="translate(0 1.29)"/>
        <path id="prefix__Path_197" d="M30.122 7.79H2.645a1.145 1.145 0 010-2.29h27.477a1.145 1.145 0 010 2.29zm-19.463 2.29h2.29v2.29h-2.29zm4.58 0h2.29v2.29h-2.29zm4.58 0h2.29v2.29h-2.29zm4.58 0h2.29v2.29H24.4zM6.08 14.659h2.29v2.29H6.08zm4.58 0h2.29v2.29h-2.29zm4.58 0h2.29v2.29h-2.29zm4.58 0h2.29v2.29h-2.29zm4.58 0h2.29v2.29H24.4zm-18.32 4.58h2.29v2.29H6.08zm4.58 0h2.29v2.29h-2.29zm4.58 0h2.29v2.29h-2.29z" class="prefix__cls-1" data-name="Path 197" transform="translate(0 5.159)"/>
    </g>
</svg>
