<svg xmlns="http://www.w3.org/2000/svg" width="18" height="18.375" viewBox="0 0 18 18.375"><g transform="translate(-0.5)"><path d="M15.28,0H.5V18.375h18V3.22ZM13.625.75V6h-9V.75ZM3.875,17.625V10.5H14.75v7.125Zm13.875,0H15.5V9.75H3.125v7.875H1.25V.75H3.875v6h10.5v-6h.6l2.78,2.78Z" fill="#fff"/><path d="M12.875,31.75H15.5a.375.375,0,1,0,0-.75H12.875a.375.375,0,0,0,0,.75Z" transform="translate(-7.5 -19.375)" fill="#fff"/><path d="M16.625,35h-3.75a.375.375,0,0,0,0,.75h3.75a.375.375,0,0,0,0-.75Z" transform="translate(-7.5 -21.875)" fill="#fff"/><path d="M25.609,35.117a.38.38,0,0,0,0,.532.386.386,0,0,0,.266.109.376.376,0,1,0-.266-.641Z" transform="translate(-15.625 -21.883)" fill="#fff"/><path d="M29.75,4H27.5V7.75h2.25ZM29,7h-.75V4.75H29Z" transform="translate(-16.875 -2.5)" fill="#fff"/></g></svg>