<svg xmlns="http://www.w3.org/2000/svg" id="prefix__speedometer" width="30.859" height="30.859" viewBox="0 0 30.859 30.859">
    <defs>
        <style>
            .prefix__cls-1{fill:#fff}
        </style>
    </defs>
    <g id="prefix__Group_58" data-name="Group 58">
        <g id="prefix__Group_57" data-name="Group 57">
            <path id="prefix__Path_237" d="M26.34 4.519a15.43 15.43 0 00-21.821 0A15.329 15.329 0 000 15.43a15.3 15.3 0 003.086 9.258.9.9 0 00.723.361h23.242a.9.9 0 00.723-.361 15.3 15.3 0 003.086-9.258 15.329 15.329 0 00-4.52-10.911zm.25 18.722H4.269a13.472 13.472 0 01-2.431-6.907h1a.9.9 0 100-1.808h-1a13.565 13.565 0 013.347-8.063l.7.7a.9.9 0 101.282-1.274l-.7-.7a13.565 13.565 0 018.063-3.346v1a.9.9 0 101.808 0v-1A13.565 13.565 0 0124.4 5.185l-.7.7a.9.9 0 101.278 1.279l.7-.7a13.565 13.565 0 013.346 8.063h-1a.9.9 0 000 1.808h1a13.474 13.474 0 01-2.434 6.906z" class="prefix__cls-1" data-name="Path 237"/>
        </g>
    </g>
    <g id="prefix__Group_60" data-name="Group 60" transform="translate(8.715 29.051)">
        <g id="prefix__Group_59" data-name="Group 59">
            <path id="prefix__Path_238" d="M157.125 482H145.5a.9.9 0 000 1.808h11.62a.9.9 0 100-1.808z" class="prefix__cls-1" data-name="Path 238" transform="translate(-144.6 -482)"/>
        </g>
    </g>
    <g id="prefix__Group_62" data-name="Group 62" transform="translate(11.62 9.497)">
        <g id="prefix__Group_61" data-name="Group 61">
            <path id="prefix__Path_239" d="M202.276 157.841a.9.9 0 00-1.279 0l-2.412 2.412a3.812 3.812 0 101.279 1.279l2.412-2.412a.9.9 0 000-1.279zm-5.667 7.668a2 2 0 112-2 2 2 0 01-2.001 2z" class="prefix__cls-1" data-name="Path 239" transform="translate(-192.799 -157.576)"/>
        </g>
    </g>
</svg>
