<?xml version="1.0" encoding="iso-8859-1"?>
<!-- Generator: Adobe Illustrator 19.0.0, SVG Export Plug-In . SVG Version: 6.00 Build 0)  -->
<svg version="1.1" id="Capa_1" xmlns="http://www.w3.org/2000/svg" xmlns:xlink="http://www.w3.org/1999/xlink" x="0px" y="0px"
	 viewBox="0 0 512 512" style="enable-background:new 0 0 512 512;" xml:space="preserve">
<polygon style="fill:#FF4949;" points="512,91 482,106 512,121 512,151 482,166 512,181 512,211 482,224.5 512,241 512,271 482,286 
	512,301 512,331 482,350.799 512,361 512,391 482,406 512,421 512,451 0,451 0,421 30,407.8 0,391 0,361 30,342.1 0,331 0,301 
	30,289.9 0,271 38.699,241 89.7,224.5 77.1,211 115.8,181 130.201,169.6 154.2,151 192.9,121 210,107.8 231.301,91 255,72.7 270,61 
	512,61 "/>
<polygon style="fill:#FF193D;" points="512,91 482,106 512,121 512,151 482,166 512,181 512,211 482,224.5 512,241 512,271 482,286 
	512,301 512,331 482,350.799 512,361 512,391 482,406 512,421 512,451 255,451 255,72.7 270,61 512,61 "/>
<g>
	<polygon style="fill:#EDE9E8;" points="512,211 512,241 38.699,241 77.1,211 	"/>
	<polygon style="fill:#EDE9E8;" points="512,151 512,181 115.8,181 154.2,151 	"/>
	<polygon style="fill:#EDE9E8;" points="512,91 512,121 192.9,121 231.301,91 	"/>
	<rect y="271" style="fill:#EDE9E8;" width="512" height="30"/>
	<rect y="331" style="fill:#EDE9E8;" width="512" height="30"/>
	<rect y="391" style="fill:#EDE9E8;" width="512" height="30"/>
</g>
<g>
	<rect x="255" y="91" style="fill:#DFD7D5;" width="257" height="30"/>
	<rect x="255" y="151" style="fill:#DFD7D5;" width="257" height="30"/>
	<rect x="255" y="211" style="fill:#DFD7D5;" width="257" height="30"/>
	<rect x="255" y="271" style="fill:#DFD7D5;" width="257" height="30"/>
	<rect x="255" y="331" style="fill:#DFD7D5;" width="257" height="30"/>
	<rect x="255" y="391" style="fill:#DFD7D5;" width="257" height="30"/>
</g>
<rect y="61" style="fill:#0091BF;" width="270" height="210"/>
<rect x="255" y="61" style="fill:#007A9F;" width="15" height="210"/>
<g>
	<rect x="60" y="121" style="fill:#EDE9E8;" width="30" height="30"/>
	<rect x="60" y="181" style="fill:#EDE9E8;" width="30" height="30"/>
	<rect x="120" y="181" style="fill:#EDE9E8;" width="30" height="30"/>
	<rect x="120" y="121" style="fill:#EDE9E8;" width="30" height="30"/>
	<rect x="180" y="121" style="fill:#EDE9E8;" width="30" height="30"/>
	<rect x="180" y="181" style="fill:#EDE9E8;" width="30" height="30"/>
</g>
<g>
</g>
<g>
</g>
<g>
</g>
<g>
</g>
<g>
</g>
<g>
</g>
<g>
</g>
<g>
</g>
<g>
</g>
<g>
</g>
<g>
</g>
<g>
</g>
<g>
</g>
<g>
</g>
<g>
</g>
</svg>
